<mxfile host="app.diagrams.net" agent="Mozilla/5.0 (Windows NT 10.0; Win64; x64) AppleWebKit/537.36 (KHTML, like Gecko) Chrome/131.0.0.0 Safari/537.36" version="26.0.7" pages="4">
  <diagram name="Page-1" id="SjXrt0CO3Pkcy-YpB55C">
    <mxGraphModel dx="1050" dy="1665" grid="0" gridSize="10" guides="1" tooltips="1" connect="1" arrows="1" fold="1" page="1" pageScale="1" pageWidth="850" pageHeight="1100" background="#FFFFFF" math="0" shadow="0">
      <root>
        <mxCell id="0" />
        <mxCell id="1" parent="0" />
        <mxCell id="OdIuNZCsK_5zf53QmaAC-1" value="&lt;h1&gt;Constraints&lt;/h1&gt;" style="rounded=1;whiteSpace=wrap;html=1;fontFamily=Times New Roman;" parent="1" vertex="1">
          <mxGeometry x="120" y="-460" width="150" height="60" as="geometry" />
        </mxCell>
        <mxCell id="OdIuNZCsK_5zf53QmaAC-2" value="" style="shape=flexArrow;endArrow=classic;html=1;rounded=0;" parent="1" edge="1">
          <mxGeometry width="50" height="50" relative="1" as="geometry">
            <mxPoint x="270" y="-430.5" as="sourcePoint" />
            <mxPoint x="340" y="-430" as="targetPoint" />
          </mxGeometry>
        </mxCell>
        <mxCell id="OdIuNZCsK_5zf53QmaAC-5" value="&lt;h1&gt;Python Logic&lt;/h1&gt;" style="rounded=1;whiteSpace=wrap;html=1;fontFamily=Times New Roman;" parent="1" vertex="1">
          <mxGeometry x="340" y="-460" width="150" height="60" as="geometry" />
        </mxCell>
        <mxCell id="OdIuNZCsK_5zf53QmaAC-6" value="&lt;h1&gt;&lt;font face=&quot;Times New Roman&quot;&gt;Timetable o/p&amp;nbsp;&lt;/font&gt;&lt;/h1&gt;" style="rounded=1;whiteSpace=wrap;html=1;" parent="1" vertex="1">
          <mxGeometry x="320" y="-330" width="170" height="60" as="geometry" />
        </mxCell>
        <mxCell id="OdIuNZCsK_5zf53QmaAC-7" value="&lt;h1&gt;Database&lt;/h1&gt;" style="rounded=1;whiteSpace=wrap;html=1;fontFamily=Times New Roman;" parent="1" vertex="1">
          <mxGeometry x="560" y="-460" width="140" height="60" as="geometry" />
        </mxCell>
        <mxCell id="OdIuNZCsK_5zf53QmaAC-9" value="" style="shape=flexArrow;endArrow=classic;html=1;rounded=0;exitX=1;exitY=0.5;exitDx=0;exitDy=0;" parent="1" source="OdIuNZCsK_5zf53QmaAC-5" edge="1">
          <mxGeometry width="50" height="50" relative="1" as="geometry">
            <mxPoint x="500" y="-430.5" as="sourcePoint" />
            <mxPoint x="560" y="-430.5" as="targetPoint" />
          </mxGeometry>
        </mxCell>
        <mxCell id="OdIuNZCsK_5zf53QmaAC-10" value="" style="shape=flexArrow;endArrow=classic;html=1;rounded=0;width=7;endSize=9.58;exitX=0.5;exitY=1;exitDx=0;exitDy=0;" parent="1" source="OdIuNZCsK_5zf53QmaAC-5" edge="1">
          <mxGeometry width="50" height="50" relative="1" as="geometry">
            <mxPoint x="414.5" y="-380" as="sourcePoint" />
            <mxPoint x="414.5" y="-330" as="targetPoint" />
          </mxGeometry>
        </mxCell>
        <mxCell id="OdIuNZCsK_5zf53QmaAC-11" value="" style="shape=flexArrow;endArrow=classic;html=1;rounded=0;exitX=0.569;exitY=1.07;exitDx=0;exitDy=0;exitPerimeter=0;" parent="1" source="OdIuNZCsK_5zf53QmaAC-7" edge="1">
          <mxGeometry width="50" height="50" relative="1" as="geometry">
            <mxPoint x="630" y="-390" as="sourcePoint" />
            <mxPoint x="490" y="-330" as="targetPoint" />
          </mxGeometry>
        </mxCell>
      </root>
    </mxGraphModel>
  </diagram>
  <diagram id="w-DCtrcwGWxc485W1iV6" name="Page-2">
    <mxGraphModel dx="1050" dy="565" grid="0" gridSize="10" guides="1" tooltips="1" connect="1" arrows="1" fold="1" page="1" pageScale="1" pageWidth="850" pageHeight="1100" math="0" shadow="0">
      <root>
        <mxCell id="0" />
        <mxCell id="1" parent="0" />
        <mxCell id="2j7Nvxikl1Ga45Kea42h-1" value="" style="rounded=0;whiteSpace=wrap;html=1;" vertex="1" parent="1">
          <mxGeometry x="354" y="62" width="186" height="568" as="geometry" />
        </mxCell>
        <mxCell id="2j7Nvxikl1Ga45Kea42h-2" value="&lt;h2&gt;&lt;font face=&quot;Times New Roman&quot;&gt;INPUT CONSTRAINTS&lt;/font&gt;&lt;/h2&gt;" style="ellipse;whiteSpace=wrap;html=1;" vertex="1" parent="1">
          <mxGeometry x="382" y="69" width="139" height="85" as="geometry" />
        </mxCell>
        <mxCell id="2j7Nvxikl1Ga45Kea42h-3" value="&lt;h2&gt;&lt;font face=&quot;Times New Roman&quot;&gt;UPDATE CONSTRAINTS&lt;/font&gt;&lt;/h2&gt;" style="ellipse;whiteSpace=wrap;html=1;" vertex="1" parent="1">
          <mxGeometry x="380" y="165" width="146" height="83" as="geometry" />
        </mxCell>
        <mxCell id="2j7Nvxikl1Ga45Kea42h-4" value="&lt;h2&gt;&lt;font face=&quot;Times New Roman&quot;&gt;GENERATE TIMETABLE&lt;/font&gt;&lt;/h2&gt;" style="ellipse;whiteSpace=wrap;html=1;" vertex="1" parent="1">
          <mxGeometry x="375.5" y="451" width="141" height="83" as="geometry" />
        </mxCell>
        <mxCell id="2j7Nvxikl1Ga45Kea42h-5" value="&lt;h1&gt;&lt;font face=&quot;Times New Roman&quot;&gt;ADMIN&lt;/font&gt;&lt;/h1&gt;" style="ellipse;whiteSpace=wrap;html=1;aspect=fixed;" vertex="1" parent="1">
          <mxGeometry x="113" y="250" width="132" height="132" as="geometry" />
        </mxCell>
        <mxCell id="2j7Nvxikl1Ga45Kea42h-6" value="&lt;h2&gt;&lt;font face=&quot;Times New Roman&quot;&gt;STORE DATA&lt;/font&gt;&lt;/h2&gt;" style="ellipse;whiteSpace=wrap;html=1;" vertex="1" parent="1">
          <mxGeometry x="375.5" y="265" width="143" height="84" as="geometry" />
        </mxCell>
        <mxCell id="2j7Nvxikl1Ga45Kea42h-7" value="&lt;h2&gt;&lt;font face=&quot;Times New Roman&quot;&gt;FETCH DATA&lt;/font&gt;&lt;/h2&gt;" style="ellipse;whiteSpace=wrap;html=1;" vertex="1" parent="1">
          <mxGeometry x="376.5" y="359" width="141" height="81" as="geometry" />
        </mxCell>
        <mxCell id="2j7Nvxikl1Ga45Kea42h-8" value="&lt;h2&gt;&lt;font face=&quot;Times New Roman&quot;&gt;VIEW TIMETABLE&lt;/font&gt;&lt;/h2&gt;" style="ellipse;whiteSpace=wrap;html=1;" vertex="1" parent="1">
          <mxGeometry x="372.5" y="545" width="147" height="81" as="geometry" />
        </mxCell>
        <mxCell id="2j7Nvxikl1Ga45Kea42h-9" value="&lt;h1&gt;&lt;font face=&quot;Times New Roman&quot;&gt;SYSTEM&lt;/font&gt;&lt;/h1&gt;" style="ellipse;whiteSpace=wrap;html=1;aspect=fixed;" vertex="1" parent="1">
          <mxGeometry x="649" y="248" width="128" height="128" as="geometry" />
        </mxCell>
        <mxCell id="2j7Nvxikl1Ga45Kea42h-11" value="" style="endArrow=classic;html=1;rounded=0;" edge="1" parent="1" target="2j7Nvxikl1Ga45Kea42h-2">
          <mxGeometry width="50" height="50" relative="1" as="geometry">
            <mxPoint x="253" y="291" as="sourcePoint" />
            <mxPoint x="350" y="234" as="targetPoint" />
          </mxGeometry>
        </mxCell>
        <mxCell id="2j7Nvxikl1Ga45Kea42h-12" value="" style="endArrow=classic;html=1;rounded=0;" edge="1" parent="1" target="2j7Nvxikl1Ga45Kea42h-3">
          <mxGeometry width="50" height="50" relative="1" as="geometry">
            <mxPoint x="259" y="317" as="sourcePoint" />
            <mxPoint x="391" y="309" as="targetPoint" />
          </mxGeometry>
        </mxCell>
        <mxCell id="2j7Nvxikl1Ga45Kea42h-13" value="" style="endArrow=classic;html=1;rounded=0;entryX=0;entryY=0.5;entryDx=0;entryDy=0;" edge="1" parent="1" target="2j7Nvxikl1Ga45Kea42h-8">
          <mxGeometry width="50" height="50" relative="1" as="geometry">
            <mxPoint x="257" y="352" as="sourcePoint" />
            <mxPoint x="307" y="302" as="targetPoint" />
          </mxGeometry>
        </mxCell>
        <mxCell id="2j7Nvxikl1Ga45Kea42h-14" value="" style="endArrow=classic;html=1;rounded=0;entryX=1;entryY=0.5;entryDx=0;entryDy=0;" edge="1" parent="1" target="2j7Nvxikl1Ga45Kea42h-4">
          <mxGeometry width="50" height="50" relative="1" as="geometry">
            <mxPoint x="642" y="308" as="sourcePoint" />
            <mxPoint x="552" y="285" as="targetPoint" />
          </mxGeometry>
        </mxCell>
        <mxCell id="2j7Nvxikl1Ga45Kea42h-16" value="" style="endArrow=classic;html=1;rounded=0;entryX=1;entryY=0.5;entryDx=0;entryDy=0;exitX=0;exitY=1;exitDx=0;exitDy=0;" edge="1" parent="1" source="2j7Nvxikl1Ga45Kea42h-9" target="2j7Nvxikl1Ga45Kea42h-6">
          <mxGeometry width="50" height="50" relative="1" as="geometry">
            <mxPoint x="694" y="385" as="sourcePoint" />
            <mxPoint x="632" y="359" as="targetPoint" />
          </mxGeometry>
        </mxCell>
        <mxCell id="2j7Nvxikl1Ga45Kea42h-17" value="" style="endArrow=classic;html=1;rounded=0;exitX=0.309;exitY=0.984;exitDx=0;exitDy=0;exitPerimeter=0;entryX=1;entryY=0.5;entryDx=0;entryDy=0;" edge="1" parent="1" source="2j7Nvxikl1Ga45Kea42h-9" target="2j7Nvxikl1Ga45Kea42h-7">
          <mxGeometry width="50" height="50" relative="1" as="geometry">
            <mxPoint x="679" y="422" as="sourcePoint" />
            <mxPoint x="590" y="454" as="targetPoint" />
          </mxGeometry>
        </mxCell>
      </root>
    </mxGraphModel>
  </diagram>
  <diagram id="IcGiEihHe07NZBNQS6wq" name="Page-3">
    <mxGraphModel dx="1235" dy="665" grid="0" gridSize="10" guides="1" tooltips="1" connect="1" arrows="1" fold="1" page="1" pageScale="1" pageWidth="850" pageHeight="1100" math="0" shadow="0">
      <root>
        <mxCell id="0" />
        <mxCell id="1" parent="0" />
        <mxCell id="qVgOh3zLu2XtOMetPi44-1" value="&lt;h2&gt;&lt;font face=&quot;Times New Roman&quot;&gt;LOGIN&lt;/font&gt;&lt;/h2&gt;" style="rounded=1;whiteSpace=wrap;html=1;" parent="1" vertex="1">
          <mxGeometry x="359" y="15" width="149" height="60" as="geometry" />
        </mxCell>
        <mxCell id="qVgOh3zLu2XtOMetPi44-2" value="&lt;h2&gt;&lt;font face=&quot;Times New Roman&quot;&gt;REGISTER&lt;/font&gt;&lt;/h2&gt;" style="rounded=1;whiteSpace=wrap;html=1;" parent="1" vertex="1">
          <mxGeometry x="362" y="105" width="145" height="60" as="geometry" />
        </mxCell>
        <mxCell id="qVgOh3zLu2XtOMetPi44-3" value="" style="endArrow=classic;html=1;rounded=0;" parent="1" edge="1">
          <mxGeometry width="50" height="50" relative="1" as="geometry">
            <mxPoint x="138" y="136" as="sourcePoint" />
            <mxPoint x="362" y="136" as="targetPoint" />
          </mxGeometry>
        </mxCell>
        <mxCell id="qVgOh3zLu2XtOMetPi44-6" value="&lt;h2&gt;DASHBOARD&lt;/h2&gt;" style="rounded=1;whiteSpace=wrap;html=1;fontFamily=Times New Roman;" parent="1" vertex="1">
          <mxGeometry x="364" y="203" width="146" height="60" as="geometry" />
        </mxCell>
        <mxCell id="qVgOh3zLu2XtOMetPi44-7" value="&lt;h2&gt;&lt;font face=&quot;Times New Roman&quot;&gt;ENTER DETAILS&lt;/font&gt;&lt;/h2&gt;" style="rounded=1;whiteSpace=wrap;html=1;" parent="1" vertex="1">
          <mxGeometry x="364" y="293" width="149" height="60" as="geometry" />
        </mxCell>
        <mxCell id="qVgOh3zLu2XtOMetPi44-14" value="" style="endArrow=none;html=1;rounded=0;exitX=0.997;exitY=0.393;exitDx=0;exitDy=0;exitPerimeter=0;" parent="1" source="qVgOh3zLu2XtOMetPi44-1" edge="1">
          <mxGeometry width="50" height="50" relative="1" as="geometry">
            <mxPoint x="513" y="46" as="sourcePoint" />
            <mxPoint x="596" y="38" as="targetPoint" />
          </mxGeometry>
        </mxCell>
        <mxCell id="qVgOh3zLu2XtOMetPi44-15" value="" style="endArrow=classic;html=1;rounded=0;entryX=1;entryY=0.5;entryDx=0;entryDy=0;" parent="1" target="qVgOh3zLu2XtOMetPi44-6" edge="1">
          <mxGeometry width="50" height="50" relative="1" as="geometry">
            <mxPoint x="595" y="233" as="sourcePoint" />
            <mxPoint x="571" y="230" as="targetPoint" />
          </mxGeometry>
        </mxCell>
        <mxCell id="qVgOh3zLu2XtOMetPi44-17" value="" style="endArrow=none;html=1;rounded=0;" parent="1" edge="1">
          <mxGeometry width="50" height="50" relative="1" as="geometry">
            <mxPoint x="595" y="233" as="sourcePoint" />
            <mxPoint x="596" y="38" as="targetPoint" />
          </mxGeometry>
        </mxCell>
        <mxCell id="qVgOh3zLu2XtOMetPi44-24" value="" style="endArrow=classic;html=1;rounded=0;" parent="1" edge="1">
          <mxGeometry width="50" height="50" relative="1" as="geometry">
            <mxPoint x="441" y="263" as="sourcePoint" />
            <mxPoint x="441" y="291" as="targetPoint" />
          </mxGeometry>
        </mxCell>
        <mxCell id="qVgOh3zLu2XtOMetPi44-8" value="&lt;h2&gt;&lt;font face=&quot;Times New Roman&quot;&gt;GENERATE TIMETABLE&lt;/font&gt;&lt;/h2&gt;" style="rounded=1;whiteSpace=wrap;html=1;" parent="1" vertex="1">
          <mxGeometry x="368" y="621" width="147" height="60" as="geometry" />
        </mxCell>
        <mxCell id="qVgOh3zLu2XtOMetPi44-26" value="&lt;h2&gt;STORE IN DB&lt;/h2&gt;" style="rounded=1;whiteSpace=wrap;html=1;fontFamily=Times New Roman;" parent="1" vertex="1">
          <mxGeometry x="366" y="505" width="151" height="60" as="geometry" />
        </mxCell>
        <mxCell id="qVgOh3zLu2XtOMetPi44-27" value="&lt;h2&gt;RETRIVE FROM DB&lt;/h2&gt;" style="rounded=1;whiteSpace=wrap;html=1;fontFamily=Times New Roman;" parent="1" vertex="1">
          <mxGeometry x="599" y="567" width="120" height="60" as="geometry" />
        </mxCell>
        <mxCell id="qVgOh3zLu2XtOMetPi44-28" value="" style="endArrow=classic;html=1;rounded=0;" parent="1" edge="1">
          <mxGeometry width="50" height="50" relative="1" as="geometry">
            <mxPoint x="513" y="329" as="sourcePoint" />
            <mxPoint x="646" y="388" as="targetPoint" />
          </mxGeometry>
        </mxCell>
        <mxCell id="qVgOh3zLu2XtOMetPi44-33" value="" style="endArrow=none;html=1;rounded=0;entryX=0.67;entryY=0.938;entryDx=0;entryDy=0;entryPerimeter=0;" parent="1" edge="1" target="qVgOh3zLu2XtOMetPi44-27">
          <mxGeometry width="50" height="50" relative="1" as="geometry">
            <mxPoint x="679" y="664" as="sourcePoint" />
            <mxPoint x="680" y="643" as="targetPoint" />
          </mxGeometry>
        </mxCell>
        <mxCell id="qVgOh3zLu2XtOMetPi44-34" value="" style="endArrow=classic;html=1;rounded=0;entryX=1.007;entryY=0.623;entryDx=0;entryDy=0;entryPerimeter=0;" parent="1" edge="1">
          <mxGeometry width="50" height="50" relative="1" as="geometry">
            <mxPoint x="683" y="665" as="sourcePoint" />
            <mxPoint x="514.999" y="665.3799999999999" as="targetPoint" />
          </mxGeometry>
        </mxCell>
        <mxCell id="qVgOh3zLu2XtOMetPi44-36" value="&lt;h2&gt;&lt;br&gt;&lt;/h2&gt;" style="text;html=1;align=center;verticalAlign=middle;resizable=0;points=[];autosize=1;strokeColor=none;fillColor=none;" parent="1" vertex="1">
          <mxGeometry x="308" y="82" width="18" height="63" as="geometry" />
        </mxCell>
        <mxCell id="qVgOh3zLu2XtOMetPi44-37" value="&lt;h2&gt;&lt;font face=&quot;Times New Roman&quot;&gt;IF NEW USER&lt;/font&gt;&lt;/h2&gt;" style="text;html=1;align=center;verticalAlign=middle;resizable=0;points=[];autosize=1;strokeColor=none;fillColor=none;" parent="1" vertex="1">
          <mxGeometry x="174" y="94" width="135" height="63" as="geometry" />
        </mxCell>
        <mxCell id="qVgOh3zLu2XtOMetPi44-38" value="" style="endArrow=classic;html=1;rounded=0;" parent="1" edge="1">
          <mxGeometry width="50" height="50" relative="1" as="geometry">
            <mxPoint x="432.94" y="105" as="sourcePoint" />
            <mxPoint x="432.94" y="75" as="targetPoint" />
            <Array as="points" />
          </mxGeometry>
        </mxCell>
        <mxCell id="ryADIbUqOXcC-hnC_pEC-3" value="&lt;h2&gt;&lt;font face=&quot;Times New Roman&quot;&gt;TEACHER NAME&lt;/font&gt;&lt;/h2&gt;" style="rounded=1;whiteSpace=wrap;html=1;" vertex="1" parent="1">
          <mxGeometry x="167" y="393" width="142" height="60" as="geometry" />
        </mxCell>
        <mxCell id="ryADIbUqOXcC-hnC_pEC-4" value="&lt;h2&gt;&lt;font face=&quot;Times New Roman&quot;&gt;SUBJECT OPTED&lt;/font&gt;&lt;/h2&gt;" style="rounded=1;whiteSpace=wrap;html=1;" vertex="1" parent="1">
          <mxGeometry x="365" y="393" width="149" height="60" as="geometry" />
        </mxCell>
        <mxCell id="ryADIbUqOXcC-hnC_pEC-5" value="&lt;h2&gt;&lt;font face=&quot;Times New Roman&quot;&gt;SUBJECT CODE&lt;/font&gt;&lt;/h2&gt;" style="rounded=1;whiteSpace=wrap;html=1;" vertex="1" parent="1">
          <mxGeometry x="589" y="393" width="120" height="60" as="geometry" />
        </mxCell>
        <mxCell id="ryADIbUqOXcC-hnC_pEC-6" value="" style="endArrow=classic;html=1;rounded=0;" edge="1" parent="1">
          <mxGeometry width="50" height="50" relative="1" as="geometry">
            <mxPoint x="362" y="335" as="sourcePoint" />
            <mxPoint x="259" y="391" as="targetPoint" />
          </mxGeometry>
        </mxCell>
        <mxCell id="ryADIbUqOXcC-hnC_pEC-7" value="" style="endArrow=classic;html=1;rounded=0;exitX=0.5;exitY=1;exitDx=0;exitDy=0;" edge="1" parent="1" source="qVgOh3zLu2XtOMetPi44-7">
          <mxGeometry width="50" height="50" relative="1" as="geometry">
            <mxPoint x="388" y="384" as="sourcePoint" />
            <mxPoint x="438" y="389" as="targetPoint" />
          </mxGeometry>
        </mxCell>
        <mxCell id="ryADIbUqOXcC-hnC_pEC-9" value="" style="endArrow=classic;html=1;rounded=0;entryX=0.5;entryY=0;entryDx=0;entryDy=0;exitX=0.5;exitY=1;exitDx=0;exitDy=0;" edge="1" parent="1" source="ryADIbUqOXcC-hnC_pEC-4" target="qVgOh3zLu2XtOMetPi44-26">
          <mxGeometry width="50" height="50" relative="1" as="geometry">
            <mxPoint x="437" y="456" as="sourcePoint" />
            <mxPoint x="487" y="406" as="targetPoint" />
          </mxGeometry>
        </mxCell>
        <mxCell id="ryADIbUqOXcC-hnC_pEC-12" value="" style="endArrow=classic;html=1;rounded=0;" edge="1" parent="1">
          <mxGeometry width="50" height="50" relative="1" as="geometry">
            <mxPoint x="517" y="537" as="sourcePoint" />
            <mxPoint x="674" y="537" as="targetPoint" />
          </mxGeometry>
        </mxCell>
        <mxCell id="ryADIbUqOXcC-hnC_pEC-13" value="" style="endArrow=classic;html=1;rounded=0;" edge="1" parent="1">
          <mxGeometry width="50" height="50" relative="1" as="geometry">
            <mxPoint x="671" y="537" as="sourcePoint" />
            <mxPoint x="671" y="567" as="targetPoint" />
          </mxGeometry>
        </mxCell>
        <mxCell id="ryADIbUqOXcC-hnC_pEC-14" value="" style="endArrow=classic;html=1;rounded=0;exitX=0.25;exitY=1;exitDx=0;exitDy=0;" edge="1" parent="1" source="ryADIbUqOXcC-hnC_pEC-5">
          <mxGeometry width="50" height="50" relative="1" as="geometry">
            <mxPoint x="533" y="505" as="sourcePoint" />
            <mxPoint x="517" y="508" as="targetPoint" />
          </mxGeometry>
        </mxCell>
        <mxCell id="ryADIbUqOXcC-hnC_pEC-15" value="" style="endArrow=classic;html=1;rounded=0;exitX=0.606;exitY=1.073;exitDx=0;exitDy=0;exitPerimeter=0;" edge="1" parent="1" source="ryADIbUqOXcC-hnC_pEC-3">
          <mxGeometry width="50" height="50" relative="1" as="geometry">
            <mxPoint x="238" y="535" as="sourcePoint" />
            <mxPoint x="366" y="504" as="targetPoint" />
          </mxGeometry>
        </mxCell>
      </root>
    </mxGraphModel>
  </diagram>
  <diagram id="UN-S6ZSQlZb2lh3Y1rBy" name="Page-4">
    <mxGraphModel dx="1050" dy="565" grid="0" gridSize="10" guides="1" tooltips="1" connect="1" arrows="1" fold="1" page="1" pageScale="1" pageWidth="1100" pageHeight="850" math="0" shadow="0">
      <root>
        <mxCell id="0" />
        <mxCell id="1" parent="0" />
        <mxCell id="iK44ixuF3deT6LSWPOQn-2" value="&lt;h1&gt;&lt;font face=&quot;Times New Roman&quot;&gt;BOOKS&lt;/font&gt;&lt;/h1&gt;" style="rounded=0;whiteSpace=wrap;html=1;" parent="1" vertex="1">
          <mxGeometry x="204" y="173" width="120" height="60" as="geometry" />
        </mxCell>
        <mxCell id="iK44ixuF3deT6LSWPOQn-3" value="&lt;h2&gt;&lt;font face=&quot;Times New Roman&quot;&gt;BookID&lt;/font&gt;&lt;/h2&gt;" style="ellipse;whiteSpace=wrap;html=1;" parent="1" vertex="1">
          <mxGeometry x="54" y="38" width="139" height="55" as="geometry" />
        </mxCell>
        <mxCell id="iK44ixuF3deT6LSWPOQn-4" value="&lt;h2&gt;&lt;font face=&quot;Times New Roman&quot;&gt;BookTitle&lt;/font&gt;&lt;/h2&gt;" style="ellipse;whiteSpace=wrap;html=1;" parent="1" vertex="1">
          <mxGeometry x="6.13" y="113" width="143" height="51" as="geometry" />
        </mxCell>
        <mxCell id="iK44ixuF3deT6LSWPOQn-5" value="&lt;h2&gt;&lt;font face=&quot;Times New Roman&quot;&gt;PublishedYear&lt;/font&gt;&lt;/h2&gt;" style="ellipse;whiteSpace=wrap;html=1;" parent="1" vertex="1">
          <mxGeometry x="268" y="276" width="168" height="51" as="geometry" />
        </mxCell>
        <mxCell id="iK44ixuF3deT6LSWPOQn-6" value="&lt;h2&gt;&lt;font face=&quot;Times New Roman&quot;&gt;Totalcopies&lt;/font&gt;&lt;/h2&gt;" style="ellipse;whiteSpace=wrap;html=1;rotation=0;" parent="1" vertex="1">
          <mxGeometry x="12.13" y="180" width="126" height="53" as="geometry" />
        </mxCell>
        <mxCell id="iK44ixuF3deT6LSWPOQn-8" value="&lt;h2&gt;&lt;font face=&quot;Times New Roman&quot;&gt;Availablecopies&lt;/font&gt;&lt;/h2&gt;" style="ellipse;whiteSpace=wrap;html=1;rotation=-15;" parent="1" vertex="1">
          <mxGeometry x="15" y="265" width="144.85" height="58" as="geometry" />
        </mxCell>
        <mxCell id="iK44ixuF3deT6LSWPOQn-9" value="&lt;h2&gt;&lt;font face=&quot;Times New Roman&quot;&gt;Genre&lt;/font&gt;&lt;/h2&gt;" style="ellipse;whiteSpace=wrap;html=1;" parent="1" vertex="1">
          <mxGeometry x="277" y="74" width="171" height="51" as="geometry" />
        </mxCell>
        <mxCell id="iK44ixuF3deT6LSWPOQn-11" value="" style="endArrow=none;html=1;rounded=0;exitX=0;exitY=0.25;exitDx=0;exitDy=0;" parent="1" source="iK44ixuF3deT6LSWPOQn-2" target="iK44ixuF3deT6LSWPOQn-4" edge="1">
          <mxGeometry width="50" height="50" relative="1" as="geometry">
            <mxPoint x="293" y="171.54000000000002" as="sourcePoint" />
            <mxPoint x="343" y="121.54" as="targetPoint" />
          </mxGeometry>
        </mxCell>
        <mxCell id="iK44ixuF3deT6LSWPOQn-12" value="" style="endArrow=none;html=1;rounded=0;exitX=1;exitY=0;exitDx=0;exitDy=0;entryX=0.652;entryY=0.987;entryDx=0;entryDy=0;entryPerimeter=0;" parent="1" source="iK44ixuF3deT6LSWPOQn-2" target="iK44ixuF3deT6LSWPOQn-9" edge="1">
          <mxGeometry width="50" height="50" relative="1" as="geometry">
            <mxPoint x="389" y="172" as="sourcePoint" />
            <mxPoint x="415" y="125" as="targetPoint" />
          </mxGeometry>
        </mxCell>
        <mxCell id="iK44ixuF3deT6LSWPOQn-13" value="" style="endArrow=none;html=1;rounded=0;exitX=0.224;exitY=0.09;exitDx=0;exitDy=0;exitPerimeter=0;" parent="1" source="iK44ixuF3deT6LSWPOQn-5" edge="1">
          <mxGeometry width="50" height="50" relative="1" as="geometry">
            <mxPoint x="299" y="315" as="sourcePoint" />
            <mxPoint x="301" y="233" as="targetPoint" />
          </mxGeometry>
        </mxCell>
        <mxCell id="iK44ixuF3deT6LSWPOQn-14" value="" style="endArrow=none;html=1;rounded=0;exitX=1;exitY=0.5;exitDx=0;exitDy=0;entryX=0;entryY=1;entryDx=0;entryDy=0;" parent="1" source="iK44ixuF3deT6LSWPOQn-8" target="iK44ixuF3deT6LSWPOQn-2" edge="1">
          <mxGeometry width="50" height="50" relative="1" as="geometry">
            <mxPoint x="159" y="271" as="sourcePoint" />
            <mxPoint x="204" y="234" as="targetPoint" />
          </mxGeometry>
        </mxCell>
        <mxCell id="iK44ixuF3deT6LSWPOQn-15" value="" style="endArrow=none;html=1;rounded=0;entryX=0.6;entryY=1.013;entryDx=0;entryDy=0;entryPerimeter=0;" parent="1" target="iK44ixuF3deT6LSWPOQn-3" edge="1">
          <mxGeometry width="50" height="50" relative="1" as="geometry">
            <mxPoint x="226" y="173" as="sourcePoint" />
            <mxPoint x="276" y="123" as="targetPoint" />
          </mxGeometry>
        </mxCell>
        <mxCell id="iK44ixuF3deT6LSWPOQn-16" value="" style="endArrow=none;html=1;rounded=0;exitX=-0.004;exitY=0.667;exitDx=0;exitDy=0;entryX=1;entryY=0.5;entryDx=0;entryDy=0;exitPerimeter=0;" parent="1" source="iK44ixuF3deT6LSWPOQn-2" target="iK44ixuF3deT6LSWPOQn-6" edge="1">
          <mxGeometry width="50" height="50" relative="1" as="geometry">
            <mxPoint x="74" y="195" as="sourcePoint" />
            <mxPoint x="124" y="145" as="targetPoint" />
          </mxGeometry>
        </mxCell>
        <mxCell id="iK44ixuF3deT6LSWPOQn-17" value="" style="endArrow=none;html=1;rounded=0;exitX=1;exitY=0.5;exitDx=0;exitDy=0;entryX=0;entryY=0.5;entryDx=0;entryDy=0;" parent="1" source="iK44ixuF3deT6LSWPOQn-2" target="iK44ixuF3deT6LSWPOQn-18" edge="1">
          <mxGeometry width="50" height="50" relative="1" as="geometry">
            <mxPoint x="401" y="244" as="sourcePoint" />
            <mxPoint x="496" y="201" as="targetPoint" />
          </mxGeometry>
        </mxCell>
        <mxCell id="iK44ixuF3deT6LSWPOQn-18" value="&lt;h2&gt;&lt;font face=&quot;Times New Roman&quot;&gt;WrittenBy&lt;/font&gt;&lt;/h2&gt;" style="rhombus;whiteSpace=wrap;html=1;" parent="1" vertex="1">
          <mxGeometry x="497" y="140" width="143" height="121" as="geometry" />
        </mxCell>
        <mxCell id="iK44ixuF3deT6LSWPOQn-19" value="" style="endArrow=none;html=1;rounded=0;entryX=0.379;entryY=1.011;entryDx=0;entryDy=0;entryPerimeter=0;" parent="1" target="iK44ixuF3deT6LSWPOQn-20" edge="1">
          <mxGeometry width="50" height="50" relative="1" as="geometry">
            <mxPoint x="567" y="140" as="sourcePoint" />
            <mxPoint x="567" y="80" as="targetPoint" />
          </mxGeometry>
        </mxCell>
        <mxCell id="iK44ixuF3deT6LSWPOQn-20" value="&lt;h2&gt;&lt;font face=&quot;Times New Roman&quot;&gt;BookAuthorID&lt;/font&gt;&lt;/h2&gt;" style="ellipse;whiteSpace=wrap;html=1;" parent="1" vertex="1">
          <mxGeometry x="512" y="35" width="154.5" height="45" as="geometry" />
        </mxCell>
        <mxCell id="iK44ixuF3deT6LSWPOQn-21" value="" style="endArrow=none;html=1;rounded=0;exitX=0.5;exitY=0;exitDx=0;exitDy=0;" parent="1" source="iK44ixuF3deT6LSWPOQn-24" edge="1">
          <mxGeometry width="50" height="50" relative="1" as="geometry">
            <mxPoint x="504" y="329" as="sourcePoint" />
            <mxPoint x="568" y="261" as="targetPoint" />
          </mxGeometry>
        </mxCell>
        <mxCell id="iK44ixuF3deT6LSWPOQn-22" value="" style="endArrow=none;html=1;rounded=0;entryX=0.5;entryY=1;entryDx=0;entryDy=0;exitX=0.461;exitY=-0.004;exitDx=0;exitDy=0;exitPerimeter=0;" parent="1" source="iK44ixuF3deT6LSWPOQn-27" target="iK44ixuF3deT6LSWPOQn-18" edge="1">
          <mxGeometry width="50" height="50" relative="1" as="geometry">
            <mxPoint x="646" y="334" as="sourcePoint" />
            <mxPoint x="604" y="277" as="targetPoint" />
          </mxGeometry>
        </mxCell>
        <mxCell id="iK44ixuF3deT6LSWPOQn-24" value="&lt;h2&gt;&lt;font face=&quot;Times New Roman&quot;&gt;AuthorID&lt;/font&gt;&lt;/h2&gt;" style="ellipse;whiteSpace=wrap;html=1;" parent="1" vertex="1">
          <mxGeometry x="418" y="336" width="143" height="51" as="geometry" />
        </mxCell>
        <mxCell id="iK44ixuF3deT6LSWPOQn-27" value="&lt;h2&gt;&lt;font face=&quot;Times New Roman&quot;&gt;BookID&lt;/font&gt;&lt;/h2&gt;" style="ellipse;whiteSpace=wrap;html=1;" parent="1" vertex="1">
          <mxGeometry x="592" y="336" width="142" height="53" as="geometry" />
        </mxCell>
        <mxCell id="iK44ixuF3deT6LSWPOQn-28" value="" style="endArrow=none;html=1;rounded=0;exitX=1;exitY=0.5;exitDx=0;exitDy=0;" parent="1" source="iK44ixuF3deT6LSWPOQn-18" target="iK44ixuF3deT6LSWPOQn-29" edge="1">
          <mxGeometry width="50" height="50" relative="1" as="geometry">
            <mxPoint x="640" y="202" as="sourcePoint" />
            <mxPoint x="797" y="202" as="targetPoint" />
          </mxGeometry>
        </mxCell>
        <mxCell id="iK44ixuF3deT6LSWPOQn-29" value="&lt;h1&gt;AUTHORS&lt;/h1&gt;" style="rounded=0;whiteSpace=wrap;html=1;" parent="1" vertex="1">
          <mxGeometry x="801" y="170.5" width="166" height="60" as="geometry" />
        </mxCell>
        <mxCell id="iK44ixuF3deT6LSWPOQn-30" value="" style="endArrow=none;html=1;rounded=0;entryX=0.5;entryY=1;entryDx=0;entryDy=0;exitX=0.5;exitY=1;exitDx=0;exitDy=0;" parent="1" source="iK44ixuF3deT6LSWPOQn-29" target="iK44ixuF3deT6LSWPOQn-32" edge="1">
          <mxGeometry width="50" height="50" relative="1" as="geometry">
            <mxPoint x="831" y="173" as="sourcePoint" />
            <mxPoint x="831" y="96" as="targetPoint" />
          </mxGeometry>
        </mxCell>
        <mxCell id="iK44ixuF3deT6LSWPOQn-31" value="" style="endArrow=none;html=1;rounded=0;entryX=0;entryY=1;entryDx=0;entryDy=0;exitX=0.5;exitY=0;exitDx=0;exitDy=0;" parent="1" source="iK44ixuF3deT6LSWPOQn-29" target="iK44ixuF3deT6LSWPOQn-33" edge="1">
          <mxGeometry width="50" height="50" relative="1" as="geometry">
            <mxPoint x="944" y="170.5" as="sourcePoint" />
            <mxPoint x="947" y="95" as="targetPoint" />
          </mxGeometry>
        </mxCell>
        <mxCell id="iK44ixuF3deT6LSWPOQn-32" value="&lt;h2&gt;&lt;font face=&quot;Times New Roman&quot;&gt;AuthorName&lt;/font&gt;&lt;/h2&gt;" style="ellipse;whiteSpace=wrap;html=1;" parent="1" vertex="1">
          <mxGeometry x="929.5" y="265" width="152" height="57.5" as="geometry" />
        </mxCell>
        <mxCell id="iK44ixuF3deT6LSWPOQn-33" value="&lt;h2&gt;&lt;font face=&quot;Times New Roman&quot;&gt;AuthorID&lt;/font&gt;&lt;/h2&gt;" style="ellipse;whiteSpace=wrap;html=1;" parent="1" vertex="1">
          <mxGeometry x="926" y="46" width="159" height="64.5" as="geometry" />
        </mxCell>
        <mxCell id="iK44ixuF3deT6LSWPOQn-35" value="" style="endArrow=none;html=1;rounded=0;entryX=0.25;entryY=1;entryDx=0;entryDy=0;exitX=0.5;exitY=0;exitDx=0;exitDy=0;" parent="1" source="iK44ixuF3deT6LSWPOQn-36" target="iK44ixuF3deT6LSWPOQn-2" edge="1">
          <mxGeometry width="50" height="50" relative="1" as="geometry">
            <mxPoint x="234" y="684" as="sourcePoint" />
            <mxPoint x="243" y="277" as="targetPoint" />
          </mxGeometry>
        </mxCell>
        <mxCell id="iK44ixuF3deT6LSWPOQn-36" value="&lt;h2&gt;&lt;font face=&quot;Times New Roman&quot;&gt;BorrowedBy&lt;/font&gt;&lt;/h2&gt;" style="rhombus;whiteSpace=wrap;html=1;" parent="1" vertex="1">
          <mxGeometry x="181" y="687" width="127" height="104" as="geometry" />
        </mxCell>
        <mxCell id="iK44ixuF3deT6LSWPOQn-37" value="" style="endArrow=none;html=1;rounded=0;exitX=0.658;exitY=0.962;exitDx=0;exitDy=0;exitPerimeter=0;" parent="1" source="iK44ixuF3deT6LSWPOQn-41" edge="1">
          <mxGeometry width="50" height="50" relative="1" as="geometry">
            <mxPoint x="116" y="699" as="sourcePoint" />
            <mxPoint x="181" y="739" as="targetPoint" />
            <Array as="points">
              <mxPoint x="130" y="707" />
            </Array>
          </mxGeometry>
        </mxCell>
        <mxCell id="iK44ixuF3deT6LSWPOQn-38" value="" style="endArrow=none;html=1;rounded=0;exitX=0.82;exitY=0.101;exitDx=0;exitDy=0;exitPerimeter=0;" parent="1" source="iK44ixuF3deT6LSWPOQn-44" edge="1">
          <mxGeometry width="50" height="50" relative="1" as="geometry">
            <mxPoint x="127" y="781" as="sourcePoint" />
            <mxPoint x="181" y="738" as="targetPoint" />
          </mxGeometry>
        </mxCell>
        <mxCell id="iK44ixuF3deT6LSWPOQn-39" value="" style="endArrow=none;html=1;rounded=0;exitX=1;exitY=0.5;exitDx=0;exitDy=0;" parent="1" source="iK44ixuF3deT6LSWPOQn-42" edge="1">
          <mxGeometry width="50" height="50" relative="1" as="geometry">
            <mxPoint x="81" y="744" as="sourcePoint" />
            <mxPoint x="180" y="738" as="targetPoint" />
          </mxGeometry>
        </mxCell>
        <mxCell id="iK44ixuF3deT6LSWPOQn-41" value="&lt;h2&gt;&lt;font face=&quot;Times New Roman&quot;&gt;BorrowID&lt;/font&gt;&lt;/h2&gt;" style="ellipse;whiteSpace=wrap;html=1;" parent="1" vertex="1">
          <mxGeometry x="34" y="656" width="120" height="42" as="geometry" />
        </mxCell>
        <mxCell id="iK44ixuF3deT6LSWPOQn-42" value="&lt;h2&gt;&lt;font face=&quot;Times New Roman&quot;&gt;BooKID&lt;/font&gt;&lt;/h2&gt;" style="ellipse;whiteSpace=wrap;html=1;" parent="1" vertex="1">
          <mxGeometry x="9.999999999999996" y="719" width="92" height="36" as="geometry" />
        </mxCell>
        <mxCell id="iK44ixuF3deT6LSWPOQn-44" value="&lt;h2&gt;&lt;font face=&quot;Times New Roman&quot;&gt;CustomerID&lt;/font&gt;&lt;/h2&gt;" style="ellipse;whiteSpace=wrap;html=1;" parent="1" vertex="1">
          <mxGeometry x="25" y="778" width="120" height="34" as="geometry" />
        </mxCell>
        <mxCell id="iK44ixuF3deT6LSWPOQn-45" value="&lt;h2&gt;&lt;font face=&quot;Times New Roman&quot;&gt;IssueDate&lt;/font&gt;&lt;/h2&gt;" style="ellipse;whiteSpace=wrap;html=1;" parent="1" vertex="1">
          <mxGeometry x="328" y="645" width="120" height="53" as="geometry" />
        </mxCell>
        <mxCell id="iK44ixuF3deT6LSWPOQn-46" value="&lt;h2&gt;&lt;font face=&quot;Times New Roman&quot;&gt;ReturnDate&lt;/font&gt;&lt;/h2&gt;" style="ellipse;whiteSpace=wrap;html=1;" parent="1" vertex="1">
          <mxGeometry x="331" y="767" width="120" height="50" as="geometry" />
        </mxCell>
        <mxCell id="iK44ixuF3deT6LSWPOQn-47" value="" style="endArrow=none;html=1;rounded=0;exitX=1;exitY=0.5;exitDx=0;exitDy=0;entryX=0.208;entryY=0.912;entryDx=0;entryDy=0;entryPerimeter=0;" parent="1" source="iK44ixuF3deT6LSWPOQn-36" target="iK44ixuF3deT6LSWPOQn-45" edge="1">
          <mxGeometry width="50" height="50" relative="1" as="geometry">
            <mxPoint x="283" y="738" as="sourcePoint" />
            <mxPoint x="333" y="688" as="targetPoint" />
          </mxGeometry>
        </mxCell>
        <mxCell id="iK44ixuF3deT6LSWPOQn-48" value="" style="endArrow=none;html=1;rounded=0;entryX=0.205;entryY=0.105;entryDx=0;entryDy=0;entryPerimeter=0;" parent="1" target="iK44ixuF3deT6LSWPOQn-46" edge="1">
          <mxGeometry width="50" height="50" relative="1" as="geometry">
            <mxPoint x="307" y="738" as="sourcePoint" />
            <mxPoint x="333" y="688" as="targetPoint" />
          </mxGeometry>
        </mxCell>
        <mxCell id="iK44ixuF3deT6LSWPOQn-49" value="" style="endArrow=none;html=1;rounded=0;exitX=1;exitY=0.5;exitDx=0;exitDy=0;" parent="1" source="iK44ixuF3deT6LSWPOQn-36" edge="1">
          <mxGeometry width="50" height="50" relative="1" as="geometry">
            <mxPoint x="319" y="739" as="sourcePoint" />
            <mxPoint x="721" y="736" as="targetPoint" />
          </mxGeometry>
        </mxCell>
        <mxCell id="iK44ixuF3deT6LSWPOQn-51" value="&lt;h1&gt;&lt;font face=&quot;Times New Roman&quot;&gt;Customers&lt;/font&gt;&lt;/h1&gt;" style="rounded=0;whiteSpace=wrap;html=1;" parent="1" vertex="1">
          <mxGeometry x="722" y="698" width="150" height="79" as="geometry" />
        </mxCell>
        <mxCell id="iK44ixuF3deT6LSWPOQn-52" value="" style="endArrow=none;html=1;rounded=0;exitX=1;exitY=0.5;exitDx=0;exitDy=0;" parent="1" source="iK44ixuF3deT6LSWPOQn-51" edge="1">
          <mxGeometry width="50" height="50" relative="1" as="geometry">
            <mxPoint x="1004" y="706" as="sourcePoint" />
            <mxPoint x="965" y="738" as="targetPoint" />
          </mxGeometry>
        </mxCell>
        <mxCell id="iK44ixuF3deT6LSWPOQn-53" value="" style="endArrow=none;html=1;rounded=0;entryX=1;entryY=0;entryDx=0;entryDy=0;" parent="1" target="iK44ixuF3deT6LSWPOQn-51" edge="1">
          <mxGeometry width="50" height="50" relative="1" as="geometry">
            <mxPoint x="939" y="659" as="sourcePoint" />
            <mxPoint x="970" y="685" as="targetPoint" />
          </mxGeometry>
        </mxCell>
        <mxCell id="iK44ixuF3deT6LSWPOQn-54" value="" style="endArrow=none;html=1;rounded=0;entryX=1;entryY=1;entryDx=0;entryDy=0;" parent="1" target="iK44ixuF3deT6LSWPOQn-51" edge="1">
          <mxGeometry width="50" height="50" relative="1" as="geometry">
            <mxPoint x="951" y="808" as="sourcePoint" />
            <mxPoint x="814" y="811" as="targetPoint" />
          </mxGeometry>
        </mxCell>
        <mxCell id="iK44ixuF3deT6LSWPOQn-55" value="&lt;h2&gt;&lt;font face=&quot;Times New Roman&quot;&gt;Name&lt;/font&gt;&lt;/h2&gt;" style="ellipse;whiteSpace=wrap;html=1;" parent="1" vertex="1">
          <mxGeometry x="940" y="628" width="126" height="61" as="geometry" />
        </mxCell>
        <mxCell id="iK44ixuF3deT6LSWPOQn-56" value="&lt;h2&gt;&lt;font face=&quot;Times New Roman&quot;&gt;Email&lt;/font&gt;&lt;/h2&gt;" style="ellipse;whiteSpace=wrap;html=1;" parent="1" vertex="1">
          <mxGeometry x="964" y="709.5" width="120" height="55" as="geometry" />
        </mxCell>
        <mxCell id="iK44ixuF3deT6LSWPOQn-57" value="&lt;h2&gt;&lt;font face=&quot;Times New Roman&quot;&gt;PhoneNo&lt;/font&gt;&lt;/h2&gt;" style="ellipse;whiteSpace=wrap;html=1;" parent="1" vertex="1">
          <mxGeometry x="951" y="784" width="120" height="55" as="geometry" />
        </mxCell>
        <mxCell id="iK44ixuF3deT6LSWPOQn-58" value="&lt;h2&gt;&lt;font face=&quot;Times New Roman&quot;&gt;CustomerID&lt;/font&gt;&lt;/h2&gt;" style="ellipse;whiteSpace=wrap;html=1;" parent="1" vertex="1">
          <mxGeometry x="556" y="618" width="120" height="50" as="geometry" />
        </mxCell>
        <mxCell id="iK44ixuF3deT6LSWPOQn-59" value="" style="endArrow=none;html=1;rounded=0;exitX=0;exitY=0;exitDx=0;exitDy=0;entryX=0.964;entryY=0.632;entryDx=0;entryDy=0;entryPerimeter=0;" parent="1" source="iK44ixuF3deT6LSWPOQn-51" target="iK44ixuF3deT6LSWPOQn-58" edge="1">
          <mxGeometry width="50" height="50" relative="1" as="geometry">
            <mxPoint x="719" y="695" as="sourcePoint" />
            <mxPoint x="686" y="637" as="targetPoint" />
          </mxGeometry>
        </mxCell>
        <mxCell id="iK44ixuF3deT6LSWPOQn-63" value="&lt;h1&gt;M&lt;/h1&gt;" style="text;html=1;align=center;verticalAlign=middle;resizable=0;points=[];autosize=1;strokeColor=none;fillColor=none;" parent="1" vertex="1">
          <mxGeometry x="395" y="157" width="38" height="73" as="geometry" />
        </mxCell>
        <mxCell id="iK44ixuF3deT6LSWPOQn-64" value="&lt;h1&gt;M&lt;/h1&gt;" style="text;html=1;align=center;verticalAlign=middle;resizable=0;points=[];autosize=1;strokeColor=none;fillColor=none;" parent="1" vertex="1">
          <mxGeometry x="695" y="151" width="38" height="73" as="geometry" />
        </mxCell>
        <mxCell id="iK44ixuF3deT6LSWPOQn-65" value="&lt;h1&gt;M&lt;/h1&gt;" style="text;html=1;align=center;verticalAlign=middle;resizable=0;points=[];autosize=1;strokeColor=none;fillColor=none;" parent="1" vertex="1">
          <mxGeometry x="230" y="365" width="38" height="73" as="geometry" />
        </mxCell>
        <mxCell id="iK44ixuF3deT6LSWPOQn-66" value="&lt;h1&gt;N&lt;/h1&gt;" style="text;html=1;align=center;verticalAlign=middle;resizable=0;points=[];autosize=1;strokeColor=none;fillColor=none;" parent="1" vertex="1">
          <mxGeometry x="497" y="684" width="35" height="73" as="geometry" />
        </mxCell>
      </root>
    </mxGraphModel>
  </diagram>
</mxfile>
